<svg width="61" height="32" viewBox="0 0 61 32" fill="none" xmlns="http://www.w3.org/2000/svg">
<path fill-rule="evenodd" clip-rule="evenodd" d="M34.7496 13.5221V27.0442H36.4888H38.228V24.4037V21.7632L39.7704 20.323C40.6185 19.5309 41.5048 18.7013 41.7398 18.4794C41.9747 18.2575 42.1821 18.0767 42.2008 18.0776C42.2196 18.0785 42.6418 18.5907 43.1386 19.2159C43.6355 19.841 44.2851 20.6558 44.5815 21.0266C44.8782 21.3973 45.2567 21.8708 45.4231 22.0787C45.5895 22.2866 46.1293 22.9613 46.6231 23.5781C47.1166 24.1948 47.9422 25.2271 48.4575 25.8719L49.3942 27.0442H51.5181C52.6861 27.0442 53.6419 27.0357 53.6419 27.0253C53.6419 27.0149 52.9865 26.1683 52.1858 25.1439C51.3848 24.1195 50.2154 22.6242 49.5873 21.8209C47.6585 19.3542 46.7367 18.1747 45.8003 16.9757C45.3061 16.3425 44.8805 15.7997 44.855 15.7694C44.8137 15.7207 45.2731 15.2544 48.8336 11.7317L52.859 7.74901L50.7743 7.74014C48.8302 7.7319 48.6849 7.73537 48.6119 7.79169C48.569 7.82492 48.1216 8.2322 47.6179 8.69673C47.1142 9.16129 46.1423 10.057 45.4575 10.6872C44.7728 11.3174 43.7064 12.2995 43.0875 12.8696C42.4685 13.4398 41.1259 14.6759 40.1036 15.6166L38.245 17.327L38.2365 8.66346L38.228 0H36.4888H34.7496V13.5221ZM19.5266 7.56444C18.9819 7.5975 18.1539 7.7266 17.652 7.85674C16.5338 8.1467 15.4241 8.69064 14.6252 9.34039C14.3376 9.57431 13.7357 10.1952 13.5669 10.4321C13.5073 10.5156 13.4459 10.584 13.4303 10.584C13.4147 10.584 13.402 9.94227 13.402 9.15792V7.73183H11.748H10.0941V17.388V27.0442H11.8323H13.5705L13.582 21.5546C13.5925 16.5591 13.5989 16.0325 13.6523 15.7042C13.9279 14.0091 14.5513 12.8253 15.6356 11.9377C16.464 11.2596 17.6043 10.8268 18.8519 10.7171C19.3988 10.669 20.444 10.6988 20.8702 10.7746C22.8508 11.1271 24.1085 12.3051 24.592 14.2609C24.8146 15.1612 24.8039 14.8278 24.8168 21.2282L24.8286 27.0442H26.5665H28.3044L28.3043 21.3313C28.3042 15.8584 28.2907 14.9423 28.2002 14.2437C27.8971 11.9046 26.9947 10.2269 25.3978 9.03376C24.2259 8.15818 22.7858 7.6732 21.0237 7.56073C20.4175 7.52204 20.2173 7.52252 19.5266 7.56444ZM0 17.388V27.0442H1.73919H3.47837V17.388V7.73183H1.73919H0V17.388ZM57.9899 22.2884C57.4641 22.3609 57.0167 22.5491 56.6569 22.8493C56.2518 23.1872 55.9445 23.6874 55.8418 24.1758C55.7774 24.4818 55.7771 25.069 55.8412 25.3732C55.9489 25.8857 56.3043 26.4395 56.7333 26.7633C57.2097 27.1227 57.6189 27.2595 58.2286 27.2632C58.6549 27.2658 58.8759 27.2209 59.2176 27.0621C59.917 26.7371 60.4115 26.1098 60.567 25.3508C60.7218 24.5943 60.5966 23.8764 60.2096 23.3028C59.9092 22.8579 59.4406 22.5163 58.9379 22.3759C58.6951 22.3081 58.187 22.2612 57.9899 22.2884Z" fill="white"/>
</svg>
