<svg xmlns="http://www.w3.org/2000/svg" version="1.1" xmlns:xlink="http://www.w3.org/1999/xlink" xmlns:svgjs="http://svgjs.dev/svgjs" width="96" height="96"><svg width="96" height="96" viewBox="0 0 96 96" fill="none" xmlns="http://www.w3.org/2000/svg">
<rect width="96" height="96" rx="5" fill="#191919"></rect>
<path fill-rule="evenodd" clip-rule="evenodd" d="M52.8766 45.6349V61.2699H54.8724H56.8682V58.2167V55.1637L58.6382 53.4985C59.6114 52.5826 60.6285 51.6234 60.8981 51.3668C61.1677 51.1103 61.4057 50.9012 61.4272 50.9022C61.4487 50.9033 61.9332 51.4955 62.5033 52.2183C63.0735 52.9411 63.819 53.8832 64.1591 54.3119C64.4995 54.7406 64.9339 55.2881 65.1249 55.5285C65.3158 55.7688 65.9353 56.549 66.502 57.2622C67.0682 57.9753 68.0156 59.1688 68.6069 59.9143L69.6819 61.2699H72.1191C73.4594 61.2699 74.5563 61.2601 74.5563 61.248C74.5563 61.236 73.8042 60.2571 72.8854 59.0726C71.9661 57.8882 70.6242 56.1592 69.9034 55.2305C67.69 52.3783 66.6323 51.0145 65.5577 49.6281C64.9906 48.896 64.5023 48.2684 64.4729 48.2334C64.4256 48.1771 64.9527 47.6379 69.0386 43.5648L73.6578 38.9598L71.2656 38.9495C69.0347 38.94 68.868 38.944 68.7842 39.0091C68.7349 39.0476 68.2215 39.5185 67.6435 40.0556C67.0655 40.5927 65.9502 41.6284 65.1644 42.3571C64.3786 43.0857 63.1549 44.2213 62.4446 44.8805C61.7344 45.5397 60.1937 46.969 59.0205 48.0567L56.8877 50.0343L56.878 40.0171L56.8682 30H54.8724H52.8766V45.6349ZM35.4075 38.7464C34.7825 38.7846 33.8323 38.9339 33.2563 39.0844C31.9732 39.4196 30.6997 40.0486 29.783 40.7998C29.453 41.0703 28.7623 41.7882 28.5686 42.0621C28.5002 42.1587 28.4297 42.2378 28.4118 42.2378C28.3939 42.2378 28.3793 41.4958 28.3793 40.5888V38.9399H26.4813H24.5834V50.1049V61.2699H26.578H28.5727L28.5859 54.9225C28.598 49.1465 28.6053 48.5376 28.6665 48.158C28.9829 46.1981 29.6982 44.8292 30.9425 43.8029C31.8931 43.0189 33.2016 42.5185 34.6333 42.3917C35.2609 42.336 36.4604 42.3705 36.9494 42.4582C39.2223 42.8657 40.6654 44.2278 41.2204 46.4892C41.4758 47.5301 41.4634 47.1446 41.4783 54.5451L41.4919 61.2699H43.4862H45.4805L45.4803 54.6643C45.4802 48.3363 45.4648 47.277 45.3609 46.4693C45.0131 43.7647 43.9775 41.8248 42.145 40.4453C40.8002 39.4329 39.1476 38.8721 37.1255 38.7421C36.4299 38.6974 36.2002 38.6979 35.4075 38.7464ZM13 50.1049V61.2699H14.9958H16.9916V50.1049V38.9399H14.9958H13V50.1049ZM79.5458 55.7709C78.9424 55.8547 78.4289 56.0724 78.0161 56.4195C77.5512 56.8102 77.1986 57.3885 77.0808 57.9533C77.0069 58.3071 77.0065 58.986 77.08 59.3377C77.2037 59.9304 77.6115 60.5707 78.1038 60.945C78.6504 61.3607 79.12 61.5188 79.8197 61.5231C80.3089 61.5261 80.5625 61.4742 80.9546 61.2906C81.7572 60.9148 82.3246 60.1894 82.5031 59.3118C82.6807 58.4371 82.5371 57.6071 82.093 56.9439C81.7482 56.4295 81.2105 56.0344 80.6337 55.8721C80.3551 55.7938 79.772 55.7395 79.5458 55.7709Z" fill="white"></path>
</svg><style>@media (prefers-color-scheme: light) { :root { filter: none; } }
@media (prefers-color-scheme: dark) { :root { filter: none; } }
</style></svg>