<svg width="24" height="24" viewBox="0 0 24 24" fill="none" xmlns="http://www.w3.org/2000/svg">
<path fill-rule="evenodd" clip-rule="evenodd" d="M2.68205 11.3629C8.47906 8.83064 12.3382 7.14805 14.2761 6.33174C19.7915 4.01609 20.9509 3.61627 21.6963 3.59961C21.8619 3.59961 22.2263 3.63293 22.4747 3.83284C22.6735 3.99943 22.7232 4.21601 22.7563 4.3826C22.7894 4.54919 22.8225 4.89904 22.7894 5.16559C22.4913 8.33086 21.1994 16.0108 20.5369 19.5426C20.2553 21.0419 19.7087 21.5417 19.1787 21.5917C18.0193 21.6917 17.1415 20.8254 16.0317 20.0924C14.2761 18.9429 13.2989 18.2265 11.5929 17.0937C9.6219 15.7942 10.8972 15.0779 12.0235 13.9117C12.3217 13.6119 17.4065 8.94726 17.5058 8.53077C17.5224 8.4808 17.5224 8.28088 17.4065 8.18093C17.2905 8.08097 17.1249 8.11429 16.9924 8.14761C16.8102 8.18093 14.0276 10.0468 8.61157 13.7285C7.81655 14.2782 7.10434 14.5448 6.45839 14.5281C5.74618 14.5115 4.38803 14.1283 3.36113 13.7951C2.11891 13.3953 1.12514 13.1787 1.20795 12.479C1.25764 12.1125 1.75453 11.746 2.68205 11.3629Z" fill="white"/>
</svg>
