<svg width="20" height="20" viewBox="0 0 20 20" fill="none" xmlns="http://www.w3.org/2000/svg">
<path d="M15.4538 3.79297C13.8638 2.15234 11.7464 1.25 9.49621 1.25C4.85156 1.25 1.0721 5.14062 1.0721 9.92188C1.0721 11.4492 1.45915 12.9414 2.19531 14.2578L1 18.75L5.46629 17.543C6.69576 18.2344 8.0808 18.5977 9.49241 18.5977H9.49621C14.1371 18.5977 18 14.707 18 9.92578C18 7.60938 17.0438 5.43359 15.4538 3.79297ZM9.49621 17.1367C8.23638 17.1367 7.00312 16.7891 5.92924 16.1328L5.675 15.9766L3.02634 16.6914L3.73214 14.0313L3.56518 13.7578C2.86317 12.6094 2.49509 11.2852 2.49509 9.92188C2.49509 5.94922 5.63705 2.71484 9.5 2.71484C11.3708 2.71484 13.1277 3.46484 14.4482 4.82812C15.7687 6.19141 16.5808 8 16.577 9.92578C16.577 13.9023 13.3554 17.1367 9.49621 17.1367ZM13.3364 11.7383C13.1277 11.6289 12.0917 11.1055 11.8982 11.0352C11.7047 10.9609 11.5643 10.9258 11.4239 11.1445C11.2835 11.3633 10.8813 11.8477 10.756 11.9961C10.6346 12.1406 10.5094 12.1602 10.3007 12.0508C9.06362 11.4141 8.25156 10.9141 7.43571 9.47266C7.21942 9.08984 7.65201 9.11719 8.05424 8.28906C8.12254 8.14453 8.08839 8.01953 8.03527 7.91016C7.98214 7.80078 7.56094 6.73438 7.38638 6.30078C7.21563 5.87891 7.04107 5.9375 6.91205 5.92969C6.79063 5.92188 6.65022 5.92188 6.50982 5.92188C6.36942 5.92188 6.14174 5.97656 5.94821 6.19141C5.75469 6.41016 5.21205 6.93359 5.21205 8C5.21205 9.06641 5.96719 10.0977 6.06964 10.2422C6.17589 10.3867 7.55335 12.5742 9.66696 13.5156C11.0027 14.1094 11.5263 14.1602 12.1942 14.0586C12.6002 13.9961 13.4388 13.5352 13.6134 13.0273C13.7879 12.5195 13.7879 12.0859 13.7348 11.9961C13.6855 11.8984 13.5451 11.8438 13.3364 11.7383Z" fill="white"/>
</svg>
