<svg width="24" height="24" viewBox="0 0 24 24" fill="none" xmlns="http://www.w3.org/2000/svg">
<path d="M12.244 3.99805C12.778 4.00105 14.114 4.01405 15.534 4.07105L16.038 4.09305C17.467 4.16005 18.895 4.27605 19.604 4.47305C20.549 4.73905 21.291 5.51305 21.542 6.49505C21.942 8.05505 21.992 11.097 21.998 11.834L21.999 11.986V12.16C21.992 12.897 21.942 15.94 21.542 17.499C21.288 18.484 20.545 19.259 19.604 19.521C18.895 19.718 17.467 19.834 16.038 19.901L15.534 19.924C14.114 19.98 12.778 19.994 12.244 19.996L12.009 19.997H11.754C10.624 19.99 5.898 19.939 4.394 19.521C3.45 19.255 2.707 18.481 2.456 17.499C2.056 15.939 2.006 12.897 2 12.16V11.834C2.006 11.097 2.056 8.05405 2.456 6.49505C2.71 5.51005 3.453 4.73505 4.395 4.47405C5.898 4.05505 10.625 4.00405 11.755 3.99805H12.244ZM9.999 8.49805V15.498L15.999 11.998L9.999 8.49805Z" fill="white"/>
</svg>
